# Blender v2.82 (sub 7) OBJ File: 'SeaWeed.blend'
# www.blender.org
mtllib SeaWeed.mtl
o Seaweed_SeaweedMesh.002
v -0.006392 0.150499 0.540215
v -0.013402 0.015549 0.347583
v 0.001686 0.150759 -0.475406
v -0.001266 0.003006 -0.279991
v -0.006829 0.149697 -0.352396
v 0.001654 0.144327 -0.224295
v -0.002069 0.161951 -0.104311
v 0.002246 0.140183 0.016972
v 0.005316 0.134629 0.170904
v -0.005841 0.154060 0.246280
v 0.003378 0.150506 0.392732
v -0.015714 0.011171 0.290134
v -0.031020 0.000649 0.217646
v -0.014888 -0.007915 0.128970
v -0.015564 -0.003718 0.033644
v -0.009636 0.010377 -0.046052
v 0.016871 0.016376 -0.114627
v 0.023259 0.008196 -0.189444
v 0.045408 0.433708 0.683417
v 0.059738 0.447204 0.560178
v 0.525122 1.971896 0.660064
v 0.546752 1.957710 0.606528
v 0.649281 2.202023 0.660870
v 0.663663 2.192591 0.625274
v 0.147239 0.858823 0.633486
v 0.136669 0.864655 0.775602
v 0.230721 1.164217 0.641954
v 0.228222 1.174971 0.732056
v 0.434426 1.725438 0.581989
v 0.396822 1.750100 0.675057
v 0.338795 1.553321 0.683747
v 0.341071 1.543530 0.601712
v -0.079436 0.514700 0.446633
v -0.058237 0.476827 0.557005
v -0.273279 1.317203 0.461639
v -0.256099 1.329404 0.566863
v -0.399228 1.743091 0.395337
v -0.382920 1.764375 0.443632
v -0.465048 1.938992 0.321743
v -0.454340 1.952968 0.353456
v -0.299926 1.448706 0.481439
v -0.292222 1.463854 0.540397
v -0.173691 0.899812 0.477762
v -0.159077 0.904885 0.560817
v 0.114504 0.568166 0.204417
v 0.091307 0.587324 0.341446
v 0.227197 0.845747 0.216086
v 0.194767 0.867626 0.302877
v 0.318168 1.005481 0.218449
v 0.303214 1.015570 0.258471
v -0.035991 0.613685 0.080507
v -0.055272 0.606280 0.193389
v -0.045193 0.751425 0.051269
v -0.074107 0.740030 0.223571
v -0.041435 0.957276 0.082943
v -0.060826 0.947551 0.212592
v 0.013963 1.769471 0.159286
v 0.000145 1.762541 0.251675
v 0.079408 2.154674 0.241140
v 0.066102 2.151648 0.285889
v 0.097426 2.269534 0.267123
v 0.087746 2.267333 0.299678
v -0.033126 0.454071 -0.633994
v -0.035698 0.454023 -0.533903
v -0.149925 0.822806 -0.729033
v -0.162282 0.820218 -0.661482
v -0.333233 1.207572 -0.844466
v -0.345182 1.203465 -0.802364
v -0.384889 1.292966 -0.861454
v -0.392725 1.290272 -0.833846
v 0.112427 0.723220 -0.377251
v 0.121148 0.707855 -0.290113
v 0.258368 1.367650 -0.390003
v 0.264170 1.357427 -0.332027
v 0.275295 1.452568 -0.407928
v 0.283625 1.437895 -0.324859
v 0.348829 1.638312 -0.376351
v 0.356559 1.620885 -0.328186
v 0.413429 1.793339 -0.362488
v 0.421159 1.775912 -0.314323
v 0.127438 0.708539 0.000617
v 0.136132 0.694020 0.085395
v 0.222000 1.077537 0.057367
v 0.228860 1.066080 0.124266
v 0.246425 1.382870 0.055658
v 0.248142 1.382555 0.100627
v -0.144671 0.590925 -0.310456
v -0.137219 0.605534 -0.220772
v -0.171080 1.038652 -0.296347
v -0.157318 1.033764 -0.253197
v -0.155778 1.156128 -0.291834
v -0.143355 1.151716 -0.252884
v 0.014978 0.145760 0.542085
v 0.007455 0.015053 0.348558
v 0.023824 0.152752 -0.474997
v 0.020507 0.003677 -0.282017
v 0.018088 0.149332 -0.352077
v 0.022840 0.149385 -0.226625
v 0.023767 0.164154 -0.106216
v 0.022478 0.136484 0.014327
v 0.026076 0.129069 0.174565
v 0.014961 0.148662 0.250571
v 0.025624 0.154722 0.390522
v 0.005198 0.010447 0.291348
v -0.010411 -0.003247 0.220744
v 0.006167 -0.010828 0.130656
v 0.005322 -0.006815 0.032538
v 0.011656 0.008927 -0.048175
v 0.039009 0.018459 -0.116882
v 0.044253 0.011248 -0.192178
v 0.066653 0.428831 0.685353
v 0.080983 0.442326 0.562115
v 0.542460 1.962508 0.669558
v 0.564091 1.948322 0.616021
v 0.666620 2.192635 0.670363
v 0.681002 2.183203 0.634768
v 0.168479 0.853875 0.635365
v 0.157803 0.859249 0.777229
v 0.251733 1.158242 0.643250
v 0.249234 1.168996 0.733352
v 0.451765 1.716051 0.591482
v 0.414161 1.740712 0.684550
v 0.359807 1.547346 0.685043
v 0.362083 1.537555 0.603008
v -0.058300 0.519893 0.444356
v -0.037101 0.482021 0.554727
v -0.252314 1.322051 0.457654
v -0.235135 1.334252 0.562878
v -0.379299 1.746667 0.387032
v -0.362992 1.767951 0.435328
v -0.445120 1.942567 0.313438
v -0.434412 1.956544 0.345151
v -0.278961 1.453554 0.477454
v -0.271258 1.468703 0.536412
v -0.152726 0.904660 0.473777
v -0.138112 0.909733 0.556832
v 0.135223 0.562580 0.208705
v 0.112027 0.581738 0.345735
v 0.244483 0.835769 0.225060
v 0.212053 0.857649 0.311851
v 0.335454 0.995503 0.227423
v 0.320500 1.005593 0.267446
v -0.014546 0.615817 0.084310
v -0.033827 0.608412 0.197192
v -0.023724 0.753264 0.055022
v -0.052642 0.742047 0.227356
v -0.019844 0.955512 0.086040
v -0.039234 0.945787 0.215689
v 0.035555 1.767707 0.162383
v 0.021737 1.760778 0.254771
v 0.100008 2.150126 0.246958
v 0.086702 2.147100 0.291707
v 0.118026 2.264986 0.272941
v 0.108346 2.262785 0.305496
v -0.011443 0.456974 -0.633435
v -0.014015 0.456926 -0.533344
v -0.130100 0.831191 -0.725085
v -0.142458 0.828603 -0.657534
v -0.315807 1.219325 -0.838374
v -0.327757 1.215218 -0.796272
v -0.367464 1.304719 -0.855362
v -0.375299 1.302026 -0.827754
v 0.133560 0.718375 -0.380220
v 0.142281 0.703011 -0.293083
v 0.279501 1.362805 -0.392973
v 0.285303 1.352582 -0.334997
v 0.296431 1.447708 -0.410904
v 0.304758 1.433051 -0.327829
v 0.368459 1.630661 -0.382269
v 0.376189 1.613235 -0.334105
v 0.433058 1.785688 -0.368406
v 0.440788 1.768261 -0.320242
v 0.148542 0.703594 -0.002394
v 0.157236 0.689075 0.082384
v 0.243103 1.072592 0.054356
v 0.249964 1.061135 0.121255
v 0.268262 1.381722 0.054817
v 0.269979 1.381406 0.099785
v -0.123908 0.597264 -0.313214
v -0.116456 0.611873 -0.223530
v -0.150440 1.036227 -0.303205
v -0.136678 1.031339 -0.260055
v -0.135138 1.153703 -0.298692
v -0.122716 1.149291 -0.259742
vt 0.000000 0.875000
vt 0.000000 1.000000
vt 1.000000 1.000000
vt 1.000000 0.875000
vt 0.000000 0.000000
vt 0.000000 0.125000
vt 1.000000 0.125000
vt 1.000000 0.000000
vt 0.000000 0.250000
vt 1.000000 0.250000
vt 0.000000 0.375000
vt 1.000000 0.375000
vt 0.000000 0.500000
vt 1.000000 0.500000
vt 0.000000 0.625000
vt 1.000000 0.625000
vt 0.000000 0.750000
vt 1.000000 0.750000
vt 0.000000 0.000000
vt 0.000000 0.125000
vt 0.000000 0.000000
vt 0.000000 0.000000
vt 0.000000 0.125000
vt 0.000000 0.125000
vt 0.000000 0.000000
vt 0.000000 0.125000
vt 0.000000 0.000000
vt 0.000000 0.125000
vt 0.000000 0.000000
vt 0.000000 0.125000
vt 0.000000 0.000000
vt 0.000000 0.125000
vt 0.000000 0.125000
vt 0.000000 0.250000
vt 0.000000 0.125000
vt 0.000000 0.125000
vt 0.000000 0.250000
vt 0.000000 0.250000
vt 0.000000 0.125000
vt 0.000000 0.125000
vt 0.000000 0.250000
vt 0.000000 0.250000
vt 0.000000 0.125000
vt 0.000000 0.250000
vt 0.000000 0.250000
vt 0.000000 0.375000
vt 0.000000 0.250000
vt 0.000000 0.375000
vt 0.000000 0.250000
vt 0.000000 0.375000
vt 0.000000 0.375000
vt 0.000000 0.500000
vt 0.000000 0.375000
vt 0.000000 0.500000
vt 0.000000 0.375000
vt 0.000000 0.500000
vt 0.000000 0.375000
vt 0.000000 0.500000
vt 0.000000 0.375000
vt 0.000000 0.500000
vt 0.000000 0.375000
vt 0.000000 0.500000
vt 0.000000 0.875000
vt 0.000000 1.000000
vt 0.000000 0.875000
vt 0.000000 1.000000
vt 0.000000 0.875000
vt 0.000000 1.000000
vt 0.000000 0.875000
vt 0.000000 1.000000
vt 0.000000 0.750000
vt 0.000000 0.875000
vt 0.000000 0.750000
vt 0.000000 0.875000
vt 0.000000 0.750000
vt 0.000000 0.875000
vt 0.000000 0.750000
vt 0.000000 0.875000
vt 0.000000 0.750000
vt 0.000000 0.875000
vt 0.000000 0.500000
vt 0.000000 0.625000
vt 0.000000 0.500000
vt 0.000000 0.625000
vt 0.000000 0.500000
vt 0.000000 0.625000
vt 0.000000 0.625000
vt 0.000000 0.750000
vt 0.000000 0.625000
vt 0.000000 0.750000
vt 0.000000 0.625000
vt 0.000000 0.750000
vt 0.000000 0.875000
vt 1.000000 0.875000
vt 1.000000 1.000000
vt 0.000000 1.000000
vt 0.000000 0.000000
vt 1.000000 0.000000
vt 1.000000 0.125000
vt 0.000000 0.125000
vt 1.000000 0.250000
vt 0.000000 0.250000
vt 1.000000 0.375000
vt 0.000000 0.375000
vt 1.000000 0.500000
vt 0.000000 0.500000
vt 1.000000 0.625000
vt 0.000000 0.625000
vt 1.000000 0.750000
vt 0.000000 0.750000
vt 0.000000 0.125000
vt 0.000000 0.000000
vt 0.000000 0.000000
vt 0.000000 0.125000
vt 0.000000 0.125000
vt 0.000000 0.000000
vt 0.000000 0.125000
vt 0.000000 0.000000
vt 0.000000 0.125000
vt 0.000000 0.000000
vt 0.000000 0.125000
vt 0.000000 0.000000
vt 0.000000 0.000000
vt 0.000000 0.125000
vt 0.000000 0.250000
vt 0.000000 0.125000
vt 0.000000 0.125000
vt 0.000000 0.250000
vt 0.000000 0.250000
vt 0.000000 0.125000
vt 0.000000 0.125000
vt 0.000000 0.250000
vt 0.000000 0.250000
vt 0.000000 0.125000
vt 0.000000 0.250000
vt 0.000000 0.125000
vt 0.000000 0.375000
vt 0.000000 0.250000
vt 0.000000 0.375000
vt 0.000000 0.250000
vt 0.000000 0.375000
vt 0.000000 0.250000
vt 0.000000 0.500000
vt 0.000000 0.375000
vt 0.000000 0.500000
vt 0.000000 0.375000
vt 0.000000 0.500000
vt 0.000000 0.375000
vt 0.000000 0.500000
vt 0.000000 0.375000
vt 0.000000 0.500000
vt 0.000000 0.375000
vt 0.000000 0.500000
vt 0.000000 0.375000
vt 0.000000 1.000000
vt 0.000000 0.875000
vt 0.000000 1.000000
vt 0.000000 0.875000
vt 0.000000 1.000000
vt 0.000000 0.875000
vt 0.000000 1.000000
vt 0.000000 0.875000
vt 0.000000 0.875000
vt 0.000000 0.750000
vt 0.000000 0.875000
vt 0.000000 0.750000
vt 0.000000 0.875000
vt 0.000000 0.750000
vt 0.000000 0.875000
vt 0.000000 0.750000
vt 0.000000 0.875000
vt 0.000000 0.750000
vt 0.000000 0.625000
vt 0.000000 0.500000
vt 0.000000 0.625000
vt 0.000000 0.500000
vt 0.000000 0.625000
vt 0.000000 0.500000
vt 0.000000 0.750000
vt 0.000000 0.625000
vt 0.000000 0.750000
vt 0.000000 0.625000
vt 0.000000 0.750000
vt 0.000000 0.625000
vn -0.9972 -0.0009 0.0748
vn -0.9899 0.1361 -0.0389
vn -0.9890 0.1013 0.1076
vn -0.9619 0.1935 -0.1930
vn -0.9913 0.1298 0.0200
vn -0.9961 0.0875 0.0076
vn -0.9817 -0.1171 -0.1502
vn -0.9880 -0.1537 0.0123
vn -0.9722 0.2218 -0.0755
vn -0.7923 0.4290 -0.4338
vn -0.9712 0.2227 -0.0847
vn -0.9604 0.2688 -0.0733
vn -0.9004 0.3396 -0.2719
vn -0.9602 0.2731 -0.0592
vn -0.9696 -0.2319 0.0774
vn -0.9580 -0.2215 0.1821
vn -0.9358 -0.2123 0.2816
vn -0.9106 -0.1634 0.3795
vn -0.9617 -0.2367 0.1379
vn -0.9462 0.2548 -0.1993
vn -0.8984 0.3344 -0.2846
vn -0.7899 0.4559 -0.4101
vn -0.9931 -0.0979 -0.0651
vn -0.9799 -0.1006 -0.1722
vn -0.9868 0.0484 -0.1545
vn -0.9866 0.0806 -0.1415
vn -0.9656 0.1904 -0.1772
vn -0.9413 0.2078 -0.2659
vn -0.9900 -0.1317 -0.0499
vn -0.9372 -0.3373 -0.0888
vn -0.8507 -0.4783 -0.2178
vn -0.7963 -0.5371 -0.2784
vn -0.9723 0.2120 0.0981
vn -0.9657 0.2214 0.1357
vn -0.9657 0.2213 0.1358
vn -0.9162 0.3488 0.1974
vn -0.8970 0.3496 0.2705
vn -0.9711 0.2168 0.0995
vn -0.9644 0.2260 0.1376
vn -0.9938 0.0733 0.0839
vn -0.9556 -0.2882 0.0613
vn -0.9857 -0.0490 0.1610
vn -0.9431 0.1108 0.3134
vn 0.9962 -0.0238 -0.0839
vn 0.9895 -0.1398 0.0368
vn 0.9881 -0.1033 -0.1136
vn 0.9611 -0.1978 0.1926
vn 0.9916 -0.1277 -0.0227
vn 0.9955 -0.0931 0.0176
vn 0.9864 0.0933 0.1353
vn 0.9883 0.1524 -0.0031
vn 0.9727 -0.2212 0.0703
vn 0.7923 -0.4290 0.4338
vn 0.9712 -0.2227 0.0848
vn 0.9604 -0.2689 0.0732
vn 0.9003 -0.3399 0.2719
vn 0.9602 -0.2731 0.0592
vn 0.9673 0.2360 -0.0931
vn 0.9580 0.2215 -0.1821
vn 0.9357 0.2124 -0.2816
vn 0.9106 0.1634 -0.3795
vn 0.9617 0.2367 -0.1379
vn 0.9463 -0.2548 0.1988
vn 0.8988 -0.3335 0.2845
vn 0.7899 -0.4559 0.4101
vn 0.9936 0.0944 0.0622
vn 0.9799 0.1006 0.1722
vn 0.9868 -0.0494 0.1544
vn 0.9866 -0.0806 0.1415
vn 0.9656 -0.1906 0.1771
vn 0.9413 -0.2078 0.2659
vn 0.9907 0.1307 0.0389
vn 0.9376 0.3363 0.0888
vn 0.8508 0.4783 0.2178
vn 0.7963 0.5371 0.2784
vn 0.9746 -0.2104 -0.0769
vn 0.9657 -0.2214 -0.1357
vn 0.9657 -0.2213 -0.1358
vn 0.9158 -0.3496 -0.1975
vn 0.8970 -0.3496 -0.2705
vn 0.9725 -0.2185 -0.0800
vn 0.9644 -0.2260 -0.1376
vn 0.9937 -0.0741 -0.0840
vn 0.9544 0.2880 -0.0783
vn 0.9858 0.0487 -0.1610
vn 0.9431 -0.1108 -0.3134
vn 0.3622 -0.1928 -0.9120
vn 0.0527 0.9986 0.0050
vn 0.3206 -0.1248 -0.9390
vn -0.2142 0.4215 0.8812
vn -0.0886 0.0051 -0.9961
vn -0.3420 0.1720 0.9238
vn 0.0444 0.4806 -0.8758
vn 0.0982 0.0643 0.9931
vn -0.5404 0.8383 -0.0716
vn 0.0328 0.1412 -0.9894
vn 0.1820 -0.4137 0.8920
vn 0.3249 0.0084 -0.9457
vn -0.1792 -0.0693 0.9814
vn -0.0617 -0.2087 -0.9760
vn -0.3955 0.1139 0.9114
vn -0.1687 -0.0782 -0.9826
vn 0.0474 0.2671 0.9625
vn 0.1874 -0.1924 -0.9633
vn 0.1409 0.0264 0.9897
vn -0.0612 -0.0337 -0.9976
vn -0.1469 -0.2374 0.9602
vn 0.0022 0.5016 -0.8651
vn -0.2274 0.0129 -0.9737
vn 0.1233 0.0906 0.9882
vn -0.2043 -0.3447 -0.9162
vn -0.1741 -0.4190 0.8911
vn 0.2173 0.0894 0.9720
vn -0.1389 -0.8134 0.5648
vn 0.1551 0.1472 -0.9769
vn 0.1314 0.2253 0.9654
vn 0.1386 0.9880 0.0677
vn 0.0917 -0.9947 0.0458
vn -0.1366 0.0113 -0.9906
vn -0.1579 0.0645 0.9853
vn -0.2891 0.9082 -0.3026
vn 0.4294 -0.1130 -0.8960
vn -0.3063 0.0763 -0.9489
vn 0.0259 -0.7945 -0.6068
vn 0.1462 0.0316 0.9888
vn -0.2841 -0.4194 -0.8622
vn -0.1261 -0.1817 0.9752
vn 0.3109 -0.0393 0.9496
vn 0.1481 0.0825 -0.9855
vn 0.2573 0.4944 0.8303
vn 0.4898 0.8712 -0.0330
vn -0.1754 -0.1698 -0.9698
vn -0.1448 -0.0366 0.9888
vn -0.2089 0.1041 -0.9724
vn 0.4179 -0.1363 -0.8982
vn 0.1123 -0.1151 0.9870
vn 0.1994 0.3611 0.9109
vn -0.3831 0.2035 0.9010
vn 0.2279 0.1693 -0.9588
vn 0.1225 0.1487 -0.9813
vn -0.1448 0.2149 -0.9658
vn -0.2141 -0.0534 0.9754
vn -0.1562 0.0393 -0.9869
vn -0.0286 0.1478 0.9886
vn 0.1973 -0.0526 0.9789
vn 0.1816 0.9760 0.1200
vn 0.1806 0.0273 0.9832
vn 0.4161 0.8744 0.2496
vn 0.3016 0.1651 -0.9390
vn 0.0764 0.0058 -0.9971
vn -0.0333 -0.9963 0.0794
vn -0.2200 0.1775 -0.9592
vn -0.2837 -0.0610 0.9570
vn -0.0232 0.1333 0.9908
vn -0.1282 -0.9729 0.1924
vn 0.2200 -0.1775 0.9592
vn 0.1952 0.0273 -0.9804
vn -0.1675 -0.9841 0.0582
vn 0.0704 -0.4551 -0.8877
vn -0.2395 -0.1568 0.9582
vn 0.1973 -0.1837 -0.9630
vn -0.1412 -0.9891 -0.0409
vn -0.0899 0.2082 -0.9739
vn -0.0438 0.5062 0.8613
vn -0.3498 0.2631 0.8991
vn -0.1196 -0.9744 -0.1904
vn 0.1039 -0.1466 0.9837
vn 0.3017 -0.0732 -0.9506
vn 0.0033 -0.9938 -0.1111
vn 0.1577 -0.1933 -0.9684
vn -0.2433 0.2123 0.9464
vn -0.2359 0.0907 0.9675
vn 0.1301 -0.9853 0.1111
vn -0.0985 0.1759 -0.9795
vn -0.1746 0.2634 0.9488
vn 0.5099 0.8598 -0.0262
vn 0.0289 -0.1138 -0.9931
vn 0.1100 -0.1304 0.9853
usemtl Seaweed
s off
f 5/1/1 3/2/1 4/3/1 18/4/1
f 1/5/2 11/6/2 12/7/2 2/8/2
f 11/6/3 10/9/3 13/10/3 12/7/3
f 10/9/4 9/11/4 14/12/4 13/10/4
f 9/11/5 8/13/5 15/14/5 14/12/5
f 8/13/6 7/15/6 16/16/6 15/14/6
f 7/15/7 6/17/7 17/18/7 16/16/7
f 6/17/8 5/1/8 18/4/8 17/18/8
f 1/5/9 19/19/9 20/20/9 11/6/9
f 30/21/10 21/22/10 22/23/10 29/24/10
f 21/22/10 23/25/10 24/26/10 22/23/10
f 19/19/11 26/27/11 25/28/11 20/20/11
f 26/27/12 28/29/12 27/30/12 25/28/12
f 31/31/13 30/21/13 29/24/13 32/32/13
f 28/29/14 31/31/14 32/32/14 27/30/14
f 11/6/15 34/33/15 33/34/15 10/9/15
f 44/35/16 36/36/16 35/37/16 43/38/16
f 42/39/17 38/40/17 37/41/17 41/42/17
f 38/40/18 40/43/18 39/44/18 37/41/18
f 36/36/16 42/39/16 41/42/16 35/37/16
f 34/33/19 44/35/19 43/38/19 33/34/19
f 10/9/20 46/45/20 45/46/20 9/11/20
f 46/45/21 48/47/21 47/48/21 45/46/21
f 48/47/22 50/49/22 49/50/22 47/48/22
f 9/11/23 52/51/23 51/52/23 8/13/23
f 52/51/24 54/53/24 53/54/24 51/52/24
f 54/53/25 56/55/25 55/56/25 53/54/25
f 56/55/26 58/57/26 57/58/26 55/56/26
f 58/57/27 60/59/27 59/60/27 57/58/27
f 60/59/28 62/61/28 61/62/28 59/60/28
f 5/1/29 64/63/29 63/64/29 3/2/29
f 64/63/30 66/65/30 65/66/30 63/64/30
f 66/65/31 68/67/31 67/68/31 65/66/31
f 68/67/32 70/69/32 69/70/32 67/68/32
f 6/17/33 72/71/33 71/72/33 5/1/33
f 72/71/34 74/73/34 73/74/34 71/72/34
f 74/73/35 76/75/35 75/76/35 73/74/35
f 76/75/36 78/77/36 77/78/36 75/76/36
f 78/77/37 80/79/37 79/80/37 77/78/37
f 8/13/38 82/81/38 81/82/38 7/15/38
f 82/81/39 84/83/39 83/84/39 81/82/39
f 84/83/40 86/85/40 85/86/40 83/84/40
f 7/15/41 88/87/41 87/88/41 6/17/41
f 88/87/42 90/89/42 89/90/42 87/88/42
f 90/89/43 92/91/43 91/92/43 89/90/43
f 97/93/44 110/94/44 96/95/44 95/96/44
f 93/97/45 94/98/45 104/99/45 103/100/45
f 103/100/46 104/99/46 105/101/46 102/102/46
f 102/102/47 105/101/47 106/103/47 101/104/47
f 101/104/48 106/103/48 107/105/48 100/106/48
f 100/106/49 107/105/49 108/107/49 99/108/49
f 99/108/50 108/107/50 109/109/50 98/110/50
f 98/110/51 109/109/51 110/94/51 97/93/51
f 93/97/52 103/100/52 112/111/52 111/112/52
f 122/113/53 121/114/53 114/115/53 113/116/53
f 113/116/53 114/115/53 116/117/53 115/118/53
f 111/112/54 112/111/54 117/119/54 118/120/54
f 118/120/55 117/119/55 119/121/55 120/122/55
f 123/123/56 124/124/56 121/114/56 122/113/56
f 120/122/57 119/121/57 124/124/57 123/123/57
f 103/100/58 102/102/58 125/125/58 126/126/58
f 136/127/59 135/128/59 127/129/59 128/130/59
f 134/131/60 133/132/60 129/133/60 130/134/60
f 130/134/61 129/133/61 131/135/61 132/136/61
f 128/130/59 127/129/59 133/132/59 134/131/59
f 126/126/62 125/125/62 135/128/62 136/127/62
f 102/102/63 101/104/63 137/137/63 138/138/63
f 138/138/64 137/137/64 139/139/64 140/140/64
f 140/140/65 139/139/65 141/141/65 142/142/65
f 101/104/66 100/106/66 143/143/66 144/144/66
f 144/144/67 143/143/67 145/145/67 146/146/67
f 146/146/68 145/145/68 147/147/68 148/148/68
f 148/148/69 147/147/69 149/149/69 150/150/69
f 150/150/70 149/149/70 151/151/70 152/152/70
f 152/152/71 151/151/71 153/153/71 154/154/71
f 97/93/72 95/96/72 155/155/72 156/156/72
f 156/156/73 155/155/73 157/157/73 158/158/73
f 158/158/74 157/157/74 159/159/74 160/160/74
f 160/160/75 159/159/75 161/161/75 162/162/75
f 98/110/76 97/93/76 163/163/76 164/164/76
f 164/164/77 163/163/77 165/165/77 166/166/77
f 166/166/78 165/165/78 167/167/78 168/168/78
f 168/168/79 167/167/79 169/169/79 170/170/79
f 170/170/80 169/169/80 171/171/80 172/172/80
f 100/106/81 99/108/81 173/173/81 174/174/81
f 174/174/82 173/173/82 175/175/82 176/176/82
f 176/176/83 175/175/83 177/177/83 178/178/83
f 99/108/84 98/110/84 179/179/84 180/180/84
f 180/180/85 179/179/85 181/181/85 182/182/85
f 182/182/86 181/181/86 183/183/86 184/184/86
f 47/48/87 49/50/87 141/141/87 139/139/87
f 85/86/88 86/85/88 178/178/88 177/177/88
f 65/66/89 67/68/89 159/159/89 157/157/89
f 50/49/90 48/47/90 140/140/90 142/142/90
f 83/84/91 85/86/91 177/177/91 175/175/91
f 68/67/92 66/65/92 158/158/92 160/160/92
f 10/9/93 33/34/93 125/125/93 102/102/93
f 86/85/94 84/83/94 176/176/94 178/178/94
f 69/70/95 70/69/95 162/162/95 161/161/95
f 8/13/96 51/52/96 143/143/96 100/106/96
f 34/33/97 11/6/97 103/100/97 126/126/97
f 67/68/98 69/70/98 161/161/98 159/159/98
f 52/51/99 9/11/99 101/104/99 144/144/99
f 6/17/100 87/88/100 179/179/100 98/110/100
f 70/69/101 68/67/101 160/160/101 162/162/101
f 43/38/102 35/37/102 127/129/102 135/128/102
f 88/87/103 7/15/103 99/108/103 180/180/103
f 51/52/104 53/54/104 145/145/104 143/143/104
f 44/35/105 34/33/105 126/126/105 136/127/105
f 5/1/106 71/72/106 163/163/106 97/93/106
f 54/53/107 52/51/107 144/144/107 146/146/107
f 11/6/108 20/20/108 112/111/108 103/100/108
f 87/88/109 89/90/109 181/181/109 179/179/109
f 72/71/110 6/17/110 98/110/110 164/164/110
f 41/42/111 37/41/111 129/133/111 133/132/111
f 19/19/112 1/5/112 93/97/112 111/112/112
f 90/89/113 88/87/113 180/180/113 182/182/113
f 1/5/114 2/8/114 94/98/114 93/97/114
f 53/54/115 55/56/115 147/147/115 145/145/115
f 42/39/116 36/36/116 128/130/116 134/131/116
f 91/92/117 92/91/117 184/184/117 183/183/117
f 18/4/118 4/3/118 96/95/118 110/94/118
f 71/72/119 73/74/119 165/165/119 163/163/119
f 56/55/120 54/53/120 146/146/120 148/148/120
f 39/44/121 40/43/121 132/136/121 131/135/121
f 29/24/122 22/23/122 114/115/122 121/114/122
f 89/90/123 91/92/123 183/183/123 181/181/123
f 4/3/124 3/2/124 95/96/124 96/95/124
f 74/73/125 72/71/125 164/164/125 166/166/125
f 37/41/126 39/44/126 131/135/126 129/133/126
f 26/27/127 19/19/127 111/112/127 118/120/127
f 92/91/128 90/89/128 182/182/128 184/184/128
f 55/56/129 57/58/129 149/149/129 147/147/129
f 40/43/130 38/40/130 130/134/130 132/136/130
f 24/26/131 23/25/131 115/118/131 116/117/131
f 73/74/132 75/76/132 167/167/132 165/165/132
f 58/57/133 56/55/133 148/148/133 150/150/133
f 35/37/134 41/42/134 133/132/134 127/129/134
f 22/23/135 24/26/135 116/117/135 114/115/135
f 76/75/136 74/73/136 166/166/136 168/168/136
f 38/40/137 42/39/137 134/131/137 130/134/137
f 23/25/138 21/22/138 113/116/138 115/118/138
f 57/58/139 59/60/139 151/151/139 149/149/139
f 20/20/140 25/28/140 117/119/140 112/111/140
f 75/76/141 77/78/141 169/169/141 167/167/141
f 60/59/142 58/57/142 150/150/142 152/152/142
f 33/34/143 43/38/143 135/128/143 125/125/143
f 28/29/144 26/27/144 118/120/144 120/122/144
f 78/77/145 76/75/145 168/168/145 170/170/145
f 61/62/146 62/61/146 154/154/146 153/153/146
f 36/36/147 44/35/147 136/127/147 128/130/147
f 79/80/148 80/79/148 172/172/148 171/171/148
f 59/60/149 61/62/149 153/153/149 151/151/149
f 25/28/150 27/30/150 119/121/150 117/119/150
f 2/8/151 12/7/151 104/99/151 94/98/151
f 77/78/152 79/80/152 171/171/152 169/169/152
f 62/61/153 60/59/153 152/152/153 154/154/153
f 31/31/154 28/29/154 120/122/154 123/123/154
f 12/7/155 13/10/155 105/101/155 104/99/155
f 80/79/156 78/77/156 170/170/156 172/172/156
f 9/11/157 45/46/157 137/137/157 101/104/157
f 13/10/158 14/12/158 106/103/158 105/101/158
f 3/2/159 63/64/159 155/155/159 95/96/159
f 46/45/160 10/9/160 102/102/160 138/138/160
f 32/32/161 29/24/161 121/114/161 124/124/161
f 14/12/162 15/14/162 107/105/162 106/103/162
f 7/15/163 81/82/163 173/173/163 99/108/163
f 64/63/164 5/1/164 97/93/164 156/156/164
f 21/22/165 30/21/165 122/113/165 113/116/165
f 15/14/166 16/16/166 108/107/166 107/105/166
f 82/81/167 8/13/167 100/106/167 174/174/167
f 45/46/168 47/48/168 139/139/168 137/137/168
f 16/16/169 17/18/169 109/109/169 108/107/169
f 63/64/170 65/66/170 157/157/170 155/155/170
f 48/47/171 46/45/171 138/138/171 140/140/171
f 30/21/172 31/31/172 123/123/172 122/113/172
f 17/18/173 18/4/173 110/94/173 109/109/173
f 81/82/174 83/84/174 175/175/174 173/173/174
f 66/65/175 64/63/175 156/156/175 158/158/175
f 49/50/176 50/49/176 142/142/176 141/141/176
f 27/30/177 32/32/177 124/124/177 119/121/177
f 84/83/178 82/81/178 174/174/178 176/176/178
